<svg width="130" height="130" viewBox="0 0 130 130" fill="none" xmlns="http://www.w3.org/2000/svg">
<circle cx="65" cy="65" r="65" fill="#1DD019"/>
<g clip-path="url(#clip0_644_1674)">
<path fill-rule="evenodd" clip-rule="evenodd" d="M98.513 40.6749C99.4855 41.6477 100.032 42.9669 100.032 44.3424C100.032 45.718 99.4855 47.0372 98.513 48.01L59.631 86.892C59.1171 87.406 58.5071 87.8137 57.8357 88.0918C57.1643 88.37 56.4446 88.5131 55.7179 88.5131C54.9911 88.5131 54.2715 88.37 53.6001 88.0918C52.9286 87.8137 52.3186 87.406 51.8048 86.892L32.4865 67.5772C31.9911 67.0987 31.5959 66.5263 31.324 65.8934C31.0521 65.2605 30.909 64.5798 30.903 63.891C30.897 63.2022 31.0283 62.5191 31.2891 61.8816C31.55 61.2441 31.9351 60.6649 32.4222 60.1778C32.9093 59.6907 33.4885 59.3055 34.126 59.0447C34.7635 58.7839 35.4466 58.6526 36.1354 58.6586C36.8242 58.6646 37.5049 58.8077 38.1378 59.0796C38.7707 59.3514 39.3431 59.7466 39.8216 60.2421L55.7161 76.1366L91.1744 40.6749C91.6562 40.1928 92.2282 39.8104 92.8578 39.5495C93.4874 39.2886 94.1622 39.1543 94.8437 39.1543C95.5252 39.1543 96.2001 39.2886 96.8297 39.5495C97.4593 39.8104 98.0313 40.1928 98.513 40.6749Z" fill="white"/>
</g>
<defs>
<clipPath id="clip0_644_1674">
<rect width="83" height="83" fill="white" transform="translate(24 23)"/>
</clipPath>
</defs>
</svg>
